<svg width="475" height="173" viewBox="0 0 475 173" fill="none" xmlns="http://www.w3.org/2000/svg">
<path d="M405.814 44.3898C405.814 44.3898 452.293 76.0375 454.088 124.05C454.088 124.05 447.61 153.147 403.171 172.969C403.171 172.969 444.478 123.711 399.517 62.7974C399.517 62.7974 395.149 67.0096 390.768 64.1339C386.387 61.2591 389.621 54.9343 389.621 54.9343C389.621 54.9343 385.397 59.7953 382.893 65.5458C380.39 71.2962 381.851 59.9 381.851 59.9C381.851 59.9 382.111 57.809 380.912 60.58C379.712 63.3501 378.826 67.4802 378.774 68.3158C378.721 69.1524 378.096 71.034 377.209 71.9225C376.323 72.8119 374.602 75.7913 374.393 76.3666C374.185 76.941 372.881 78.5095 373.298 70.8256C373.298 70.8256 373.585 68.2536 372.507 71.4254C371.43 74.5973 371.531 79.2216 371.497 80.6721C371.463 82.1237 370.554 83.7101 370.453 84.0477C370.353 84.3844 368.804 87.2196 368.5 88.4683C368.198 89.717 367.557 89.2106 367.39 87.827C367.221 86.4434 366.581 83.2706 366.649 82.1906C366.716 81.1117 365.908 81.7521 365.841 82.4613C365.773 83.1696 365.498 84.3495 365.841 94.1423C365.841 94.1423 366.08 96.2956 365.415 97.6283C364.75 98.9619 363.062 105.268 362.909 107.011C362.755 108.754 362.09 108.242 361.63 106.345C361.17 104.447 348.463 71.599 390.121 48.1483C390.121 48.1483 391.095 47.1164 389.182 47.6078C387.269 48.0992 385.161 48.6887 381.826 50.9013C381.826 50.9013 380.698 51.4418 379.913 51.3927C379.129 51.3437 374.127 51.9822 372.018 52.8178C369.91 53.6535 371.822 50.6061 371.822 50.6061C371.822 50.6061 375.266 46.1629 375.808 45.7479C376.35 45.332 376.223 44.7246 374.851 45.5244C373.48 46.3233 369.335 49.0395 364.138 55.0173C364.138 55.0173 363.755 55.5926 362.129 56.1038C360.503 56.615 354.444 59.4596 352.371 60.8658C350.298 62.2721 351.64 56.6065 356.27 48.6925C356.27 48.6925 357.489 46.2016 355.198 48.302C352.908 50.4024 349.545 53.5045 344.525 64.8629C344.525 64.8629 343.696 66.4993 342.234 67.1341C340.771 67.7697 335.167 72.2148 333.558 73.4853C331.95 74.7557 330.814 73.6871 335.586 61.2525C335.586 61.2525 336.609 57.9731 333.472 62.6191C330.337 67.2642 326.384 77.854 326.18 78.8104C325.975 79.7667 324.203 81.7483 324.203 81.7483C324.203 81.7483 321.749 84.0024 318.614 87.5553C315.479 91.1082 318.395 79.1244 318.395 79.1244C318.395 79.1244 318.919 77.3466 317.468 79.165C316.016 80.9834 314.371 86.2538 313.091 93.5519C313.091 93.5519 313.023 94.7686 311.608 96.5248C310.192 98.2819 307.765 102.134 307.091 104.229C306.417 106.323 305.001 103.485 305.001 98.2819C305.001 93.0785 304.359 57.1922 343.73 37.9537C343.73 37.9537 368.244 25.3229 389.551 36.7738C389.551 36.7738 390.291 36.9285 389.355 35.8165C388.419 34.7045 387.688 33.0181 383.756 30.1075C379.825 27.1969 385.1 29.3351 385.1 29.3351C385.1 29.3351 388.121 30.3697 379.68 24.1779C379.68 24.1779 376.948 22.2784 380.911 23.1904C384.873 24.1034 376.227 17.0599 374.765 16.4996C373.301 15.9394 372.878 14.0691 377.23 16.0809C381.581 18.0917 389.133 30.4942 391.398 37.3076C391.398 37.3076 378.682 4.05558 417.738 0C417.738 0 418.438 0.0754445 417.559 0.879959C416.68 1.68542 414.768 2.64272 413.925 3.71698C413.925 3.71698 413.582 4.17631 412.664 4.09991C411.746 4.02352 406.928 6.05508 406.431 7.08972C405.933 8.12437 407.03 7.43115 407.03 7.43115C407.03 7.43115 410.036 6.52855 410.309 6.57948C410.581 6.62947 410.197 7.1067 410.197 7.1067C410.197 7.1067 407.079 10.3813 406.8 10.9048C406.519 11.4292 405.772 11.6537 405.772 11.6537C405.772 11.6537 401.768 13.3221 398.684 16.245C398.684 16.245 396.628 18.0426 399.664 16.6043C402.699 15.1669 403.082 15.2867 403.082 15.2867C403.082 15.2867 403.679 15.0472 403.082 16.0299C402.484 17.0118 401.026 18.833 400.214 21.0607C400.214 21.0607 400.046 21.588 399.544 21.9473C399.042 22.3067 394.86 25.4926 394.167 27.8647C394.167 27.8647 393.593 29.0153 395.051 27.8892C396.509 26.7631 397.465 26.3556 397.465 26.3556C397.465 26.3556 398.039 26.0925 397.871 26.931C397.704 27.7694 395.792 33.2322 396.055 36.9926C396.055 36.9926 395.923 37.7348 396.539 36.6653C397.155 35.5958 405.263 26.2264 420.135 27.0706C435.007 27.9156 463.776 37.7556 474.199 69.4259C474.199 69.4259 474.245 70.0475 473.625 69.4797C473.005 68.9119 469.45 66.4437 468.739 65.1562C468.029 63.8688 462.891 56.3085 461.033 55.3502C459.175 54.391 461.552 57.0206 461.552 57.0206C461.552 57.0206 464.613 60.746 464.476 61.842C464.34 62.937 462.153 60.8828 462.153 60.8828C462.153 60.8828 459.748 59.2398 459.12 59.0748C458.491 58.9107 457.808 57.7326 457.808 57.7326C457.808 57.7326 454.169 50.5637 449.83 48.3463C447.674 47.3089 449.715 49.3253 449.715 49.3253C449.715 49.3253 452.388 52.4651 452.503 54.7702C452.503 55.7784 451.124 54.8277 451.124 54.8277C451.124 54.8277 445.777 52.235 444.714 52.1199C443.651 52.0048 440.397 47.9351 440.397 47.9351C440.397 47.9351 437.396 44.2851 434.035 42.3195C430.674 40.3549 438.53 47.2692 438.686 49.4894C438.686 49.4894 438.874 50.0214 437.937 49.6771C437.001 49.3338 431.946 47.8634 431.197 47.8634C430.448 47.8634 429.044 46.4562 429.044 46.4562C429.044 46.4562 423.163 40.8916 417.414 39.7391C417.414 39.7391 415.458 39.0091 418.908 41.3141C422.357 43.6202 424.121 45.0802 424.619 46.4251C424.619 46.4251 424.804 46.9174 423.835 46.7552C422.865 46.5939 418.55 46.1544 417.096 46.3855C415.643 46.6166 413.912 45.414 413.912 45.414C413.912 45.414 408.374 43.1872 405.927 43.1552C403.479 43.1222 405.814 44.3898 405.814 44.3898Z" fill="url(#paint0_linear_525_22)" fill-opacity="0.71"/>
<path d="M405.814 44.3898C405.814 44.3898 452.293 76.0375 454.088 124.05C454.088 124.05 447.61 153.147 403.171 172.969C403.171 172.969 444.478 123.711 399.517 62.7974C399.517 62.7974 395.149 67.0096 390.768 64.1339C386.387 61.2591 389.621 54.9343 389.621 54.9343C389.621 54.9343 385.397 59.7953 382.893 65.5458C380.39 71.2962 381.851 59.9 381.851 59.9C381.851 59.9 382.111 57.809 380.912 60.58C379.712 63.3501 378.826 67.4802 378.774 68.3158C378.721 69.1524 378.096 71.034 377.209 71.9225C376.323 72.8119 374.602 75.7913 374.393 76.3666C374.185 76.941 372.881 78.5095 373.298 70.8256C373.298 70.8256 373.585 68.2536 372.507 71.4254C371.43 74.5973 371.531 79.2216 371.497 80.6721C371.463 82.1237 370.554 83.7101 370.453 84.0477C370.353 84.3844 368.804 87.2196 368.5 88.4683C368.198 89.717 367.557 89.2106 367.39 87.827C367.221 86.4434 366.581 83.2706 366.649 82.1906C366.716 81.1117 365.908 81.7521 365.841 82.4613C365.773 83.1696 365.498 84.3495 365.841 94.1423C365.841 94.1423 366.08 96.2956 365.415 97.6283C364.75 98.9619 363.062 105.268 362.909 107.011C362.755 108.754 362.09 108.242 361.63 106.345C361.17 104.447 348.463 71.599 390.121 48.1483C390.121 48.1483 391.095 47.1164 389.182 47.6078C387.269 48.0992 385.161 48.6887 381.826 50.9013C381.826 50.9013 380.698 51.4418 379.913 51.3927C379.129 51.3437 374.127 51.9822 372.018 52.8178C369.91 53.6535 371.822 50.6061 371.822 50.6061C371.822 50.6061 375.266 46.1629 375.808 45.7479C376.35 45.332 376.223 44.7246 374.851 45.5244C373.48 46.3233 369.335 49.0395 364.138 55.0173C364.138 55.0173 363.755 55.5926 362.129 56.1038C360.503 56.615 354.444 59.4596 352.371 60.8658C350.298 62.2721 351.64 56.6065 356.27 48.6925C356.27 48.6925 357.489 46.2016 355.198 48.302C352.908 50.4024 349.545 53.5045 344.525 64.8629C344.525 64.8629 343.696 66.4993 342.234 67.1341C340.771 67.7697 335.167 72.2148 333.558 73.4853C331.95 74.7557 330.814 73.6871 335.586 61.2525C335.586 61.2525 336.609 57.9731 333.472 62.6191C330.337 67.2642 326.384 77.854 326.18 78.8104C325.975 79.7667 324.203 81.7483 324.203 81.7483C324.203 81.7483 321.749 84.0024 318.614 87.5553C315.479 91.1082 318.395 79.1244 318.395 79.1244C318.395 79.1244 318.919 77.3466 317.468 79.165C316.016 80.9834 314.371 86.2538 313.091 93.5519C313.091 93.5519 313.023 94.7686 311.608 96.5248C310.192 98.2819 307.765 102.134 307.091 104.229C306.417 106.323 305.001 103.485 305.001 98.2819C305.001 93.0785 304.359 57.1922 343.73 37.9537C343.73 37.9537 368.244 25.3229 389.551 36.7738C389.551 36.7738 390.291 36.9285 389.355 35.8165C388.419 34.7045 387.688 33.0181 383.756 30.1075C379.825 27.1969 385.1 29.3351 385.1 29.3351C385.1 29.3351 388.121 30.3697 379.68 24.1779C379.68 24.1779 376.948 22.2784 380.911 23.1904C384.873 24.1034 376.227 17.0599 374.765 16.4996C373.301 15.9394 372.878 14.0691 377.23 16.0809C381.581 18.0917 389.133 30.4942 391.398 37.3076C391.398 37.3076 378.682 4.05558 417.738 0C417.738 0 418.438 0.0754445 417.559 0.879959C416.68 1.68542 414.768 2.64272 413.925 3.71698C413.925 3.71698 413.582 4.17631 412.664 4.09991C411.746 4.02352 406.928 6.05508 406.431 7.08972C405.933 8.12437 407.03 7.43115 407.03 7.43115C407.03 7.43115 410.036 6.52855 410.309 6.57948C410.581 6.62947 410.197 7.1067 410.197 7.1067C410.197 7.1067 407.079 10.3813 406.8 10.9048C406.519 11.4292 405.772 11.6537 405.772 11.6537C405.772 11.6537 401.768 13.3221 398.684 16.245C398.684 16.245 396.628 18.0426 399.664 16.6043C402.699 15.1669 403.082 15.2867 403.082 15.2867C403.082 15.2867 403.679 15.0472 403.082 16.0299C402.484 17.0118 401.026 18.833 400.214 21.0607C400.214 21.0607 400.046 21.588 399.544 21.9473C399.042 22.3067 394.86 25.4926 394.167 27.8647C394.167 27.8647 393.593 29.0153 395.051 27.8892C396.509 26.7631 397.465 26.3556 397.465 26.3556C397.465 26.3556 398.039 26.0925 397.871 26.931C397.704 27.7694 395.792 33.2322 396.055 36.9926C396.055 36.9926 395.923 37.7348 396.539 36.6653C397.155 35.5958 405.263 26.2264 420.135 27.0706C435.007 27.9156 463.776 37.7556 474.199 69.4259C474.199 69.4259 474.245 70.0475 473.625 69.4797C473.005 68.9119 469.45 66.4437 468.739 65.1562C468.029 63.8688 462.891 56.3085 461.033 55.3502C459.175 54.391 461.552 57.0206 461.552 57.0206C461.552 57.0206 464.613 60.746 464.476 61.842C464.34 62.937 462.153 60.8828 462.153 60.8828C462.153 60.8828 459.748 59.2398 459.12 59.0748C458.491 58.9107 457.808 57.7326 457.808 57.7326C457.808 57.7326 454.169 50.5637 449.83 48.3463C447.674 47.3089 449.715 49.3253 449.715 49.3253C449.715 49.3253 452.388 52.4651 452.503 54.7702C452.503 55.7784 451.124 54.8277 451.124 54.8277C451.124 54.8277 445.777 52.235 444.714 52.1199C443.651 52.0048 440.397 47.9351 440.397 47.9351C440.397 47.9351 437.396 44.2851 434.035 42.3195C430.674 40.3549 438.53 47.2692 438.686 49.4894C438.686 49.4894 438.874 50.0214 437.937 49.6771C437.001 49.3338 431.946 47.8634 431.197 47.8634C430.448 47.8634 429.044 46.4562 429.044 46.4562C429.044 46.4562 423.163 40.8916 417.414 39.7391C417.414 39.7391 415.458 39.0091 418.908 41.3141C422.357 43.6202 424.121 45.0802 424.619 46.4251C424.619 46.4251 424.804 46.9174 423.835 46.7552C422.865 46.5939 418.55 46.1544 417.096 46.3855C415.643 46.6166 413.912 45.414 413.912 45.414C413.912 45.414 408.374 43.1872 405.927 43.1552C403.479 43.1222 405.814 44.3898 405.814 44.3898Z" fill="url(#paint1_linear_525_22)" fill-opacity="0.71"/>
<path d="M15.8988 143.64C20.9388 146.36 25.9788 147.64 33.8188 148.04C36.8588 148.12 38.7788 147.56 39.0188 145.08C39.1788 143.24 37.6588 142.04 34.8588 142.12C33.0188 142.2 31.0188 142.44 29.0188 142.2C25.5788 141.72 22.0588 140.52 19.4988 139.16C14.0588 136.28 10.3788 131.48 10.3788 124.04C10.3788 116.12 14.6988 106.52 20.7787 101.48C23.2588 99.24 26.9388 97.32 30.6988 97.32C33.5788 97.32 35.8988 98.28 37.6588 98.92C39.4188 99.72 40.8588 99.4 41.4188 98.28C42.0588 96.84 41.8988 95.88 40.7788 94.92C39.5788 94.04 37.1788 92.84 35.0188 92.44C33.4188 92.12 31.1788 92.04 29.4988 92.04C24.6188 92.04 20.3788 94.2 16.9388 97.16C9.09875 103.96 4.21875 115.24 4.21875 125.32C4.21875 133.96 8.77875 139.96 15.8988 143.64ZM69.3419 135.56C69.3419 139.16 66.7019 141 64.1419 141.96C61.7419 142.76 59.1819 143.24 56.9419 143.16C55.1819 143.08 54.0619 142.52 53.2619 141.8C52.6219 141 52.2219 139.8 52.2219 138.68C52.2219 137.16 53.0219 135.8 53.9019 134.92C56.2219 132.6 59.7419 130.92 63.7419 131C66.9419 131.08 69.3419 132.36 69.3419 135.56ZM59.6619 109.16C55.7419 109 51.8219 109.88 49.3419 111.72C47.9819 112.68 47.1819 114.36 48.0619 115.64C48.9419 117 50.3819 116.76 51.5019 115.96C53.6619 114.6 55.8219 114.2 57.9019 114.2C61.1819 114.2 64.3019 115.08 66.3819 117.08C68.5419 119.24 70.3019 124.68 70.3019 128.04C68.4619 126.44 66.2219 125.96 63.2619 125.96C57.6619 126.2 53.1019 128.36 49.9819 131.56C48.3019 133.24 47.0219 136.04 47.0219 138.68C47.0219 141.16 47.6619 143.24 48.8619 144.76C50.3819 146.84 53.5819 148.04 56.7019 148.04C59.6619 148.04 62.5419 147.64 65.0219 146.68C67.7419 145.72 70.2219 144.28 71.9019 142.12C72.4619 144.04 74.5419 146.68 77.1819 148.28C78.3819 149 79.9819 149.16 81.0219 148.04C81.9019 146.92 82.0619 145.48 80.9419 144.52C80.3819 143.96 79.7419 143.88 79.3419 143.56C78.0619 142.44 77.1819 141.56 76.5419 140.12C75.5819 138.68 75.6619 137.72 75.9019 136.28C76.5419 127.72 75.8219 119.32 70.6219 113.64C67.7419 110.52 64.3819 109.32 59.6619 109.16ZM88.8919 95.16C88.7319 101.16 88.8119 109.56 88.8919 118.84C88.8919 126.84 88.9719 133.72 88.9719 138.04C88.9719 138.52 88.8919 140.6 88.8919 141.16C88.4119 142.2 88.5719 144.28 89.3719 145.8C90.1719 146.92 91.2919 147.24 92.1719 147.24C93.6119 147.32 94.5719 146.52 94.8119 145.24C95.0519 143.72 94.9719 142.68 94.9719 139.08C94.9719 135.48 94.8119 130.76 94.8119 125.4C94.7319 120.2 94.7319 112.2 94.7319 107.88C94.7319 103.56 94.8119 99.96 94.9719 96.28C95.0519 93.96 94.1719 92.84 92.3319 92.6C90.4919 92.36 88.9719 93.32 88.8919 95.16ZM132.989 122.36C132.989 125.64 129.149 127.72 121.949 127.72C118.029 127.72 114.509 126.52 111.789 124.2C113.629 118.92 117.789 116.04 123.869 116.04C129.469 116.04 132.989 118.68 132.989 122.36ZM107.389 120.28C106.109 122.84 105.069 126.28 105.069 129.64C105.069 141.08 112.429 147.08 123.549 147.08C127.469 147.08 130.669 146.6 133.069 145.4C134.429 144.68 134.749 143.16 134.269 142.12C133.629 140.76 132.189 140.52 130.749 141.08C128.989 141.72 126.109 142.04 123.629 142.04C120.029 142.04 116.909 141.08 114.589 139.16C112.349 137.24 110.589 133.8 110.669 129.96C113.149 132.12 117.309 133.24 121.549 133.24C125.629 133.24 129.789 132.76 132.989 130.84C136.589 128.84 138.349 126.28 138.349 122.12C138.349 115.48 132.269 110.52 123.629 110.52C116.269 110.52 110.109 114.92 107.389 120.28ZM147.147 120.2C147.147 122.12 147.467 124.76 147.707 128.52C148.187 134.2 148.107 139.16 148.107 144.44C148.187 145.56 148.427 146.2 149.227 147.08C150.107 147.96 151.547 147.72 152.827 146.92C154.827 145.72 155.307 144.2 155.307 142.52C155.307 139.88 154.987 134.12 155.067 131.56C158.347 124.2 164.667 119.48 169.467 117.48C170.427 117.16 171.867 116.84 172.667 116.84C175.547 116.84 176.747 119.32 177.307 123.56C178.187 129.56 177.467 137.32 177.867 142.84C178.107 145.88 178.827 147.64 181.627 147.64C183.947 147.64 184.667 146.2 184.587 144.04C184.507 142.92 184.107 140.6 184.027 138.6C183.947 133.8 184.027 128.52 183.387 124.12C182.667 118.44 180.747 112.92 176.827 111.32C174.907 110.36 171.707 110.6 169.787 111.08C164.267 112.52 156.747 117.72 153.707 124.12C153.867 121.24 153.467 118.6 153.307 116.04C153.227 115.24 153.067 114.52 152.907 113.72C152.667 112.6 152.347 111.08 151.547 110.44C150.587 109.72 149.067 109.8 147.707 111C146.827 111.64 146.507 112.84 146.427 113.72C146.347 114.36 146.507 115.56 146.747 116.52C146.987 117.64 147.147 118.84 147.147 120.2ZM214.788 118.12C216.228 118.04 216.868 117 216.868 115.88C216.868 114.84 216.148 113.96 214.628 113.96C212.548 113.88 209.348 113.88 205.908 114.04C205.988 108.12 206.628 102.12 207.748 97.64C209.988 97.96 211.908 99 213.268 100.76C214.628 102.6 215.588 105.16 215.588 107.32C215.588 109.48 216.308 110.44 217.828 110.44C218.948 110.52 219.828 109.64 220.228 108.52C220.628 107.24 220.708 106.12 220.388 104.28C219.748 100.84 217.748 97.8 215.108 95.72C213.268 93.96 211.028 92.84 208.708 92.28C206.068 91.48 204.148 91.96 203.268 93.64C202.068 96.12 201.748 98.76 201.428 101.32C200.868 105.16 200.468 110.28 200.308 114.36L192.788 114.68C191.028 114.76 189.828 115.64 189.828 117C189.828 119 191.108 119.4 192.948 119.4C194.788 119.4 197.508 119.24 200.308 119.08C200.308 121.64 200.388 125.4 200.388 129.56C200.388 135.48 200.868 139 200.708 143.96C200.708 145.64 201.028 147.48 202.468 147.96C204.388 148.52 206.228 146.76 206.788 145.08C207.428 143.32 207.188 141.96 206.868 140.28C206.628 138.92 206.148 137.88 206.068 136.84C205.988 132.84 205.908 126.68 205.908 118.68L214.788 118.12ZM235.148 141.72C230.828 141.72 227.948 137.08 227.948 130.28C227.948 126.36 228.908 120.92 230.508 120.28C231.068 120.12 231.788 119.24 231.948 118.6C232.188 117.48 234.348 116.2 236.988 116.2C240.188 116.2 243.228 118.2 244.908 120.68C246.348 123.08 247.068 125.88 247.068 128.44C247.068 135.4 241.628 141.72 235.148 141.72ZM252.108 133.64C253.068 130.36 253.068 126.92 252.508 123.8C251.788 119.56 250.028 116.68 247.468 114.36C244.828 111.8 240.508 110.36 236.588 110.36C232.348 110.36 228.588 112.2 226.908 115.48C222.988 119 221.788 123.56 221.788 130.2C221.788 132.6 222.108 136.04 223.548 139.48C225.868 145.16 231.308 147.96 237.228 146.84C245.468 145.32 250.348 139.8 252.108 133.64ZM283.349 120.76C284.949 120.28 286.149 120.36 287.189 119.64C288.229 119 288.949 117.88 289.029 116.92C289.109 115.24 287.989 114.12 286.389 114.12C285.269 114.12 283.989 114.68 282.549 115.16C280.149 116.04 276.709 117.48 273.749 120.2C271.349 122.36 269.269 125.4 267.749 128.6C267.909 123.72 267.509 119.08 267.509 115.64C267.509 114.84 267.589 114.2 267.509 113.56C267.349 111.72 266.229 110.6 264.549 110.6C262.949 110.6 261.989 111.88 261.749 113.72C261.669 114.52 261.669 115.88 261.749 117C261.989 121.32 262.629 128.12 262.789 134.92C262.869 138.04 262.949 140.04 262.869 143.96C262.789 145.96 263.829 147.24 265.909 147.24C267.669 147.24 269.029 146.04 269.029 143.96C269.189 140.44 269.589 135.08 271.429 131.96C274.309 127.08 278.549 122.2 283.349 120.76ZM294.725 120.2C294.725 122.12 295.045 124.76 295.285 128.52C295.765 134.2 295.685 139.16 295.685 144.44C295.765 145.56 296.005 146.2 296.805 147.08C297.685 147.96 299.125 147.72 300.405 146.92C302.405 145.72 302.885 144.2 302.885 142.52C302.885 139.88 302.565 134.12 302.645 131.56C305.925 124.2 312.245 119.48 317.045 117.48C318.005 117.16 319.445 116.84 320.245 116.84C323.125 116.84 324.325 119.32 324.885 123.56C325.765 129.56 325.045 137.32 325.445 142.84C325.685 145.88 326.405 147.64 329.205 147.64C331.525 147.64 332.245 146.2 332.165 144.04C332.085 142.92 331.685 140.6 331.605 138.6C331.525 133.8 331.605 128.52 330.965 124.12C330.245 118.44 328.325 112.92 324.405 111.32C322.485 110.36 319.285 110.6 317.365 111.08C311.845 112.52 304.325 117.72 301.285 124.12C301.445 121.24 301.045 118.6 300.885 116.04C300.805 115.24 300.645 114.52 300.485 113.72C300.245 112.6 299.925 111.08 299.125 110.44C298.165 109.72 296.645 109.8 295.285 111C294.405 111.64 294.085 112.84 294.005 113.72C293.925 114.36 294.085 115.56 294.325 116.52C294.565 117.64 294.725 118.84 294.725 120.2ZM345.086 114.12C344.766 121.08 344.606 134.44 345.326 144.28C345.406 146.12 346.926 147.24 348.606 147.24C350.766 147.32 351.566 145.96 351.646 144.68C351.646 143.96 351.486 143.16 351.166 142.2C351.006 141.48 350.766 140.36 350.766 137.16C350.926 130.76 350.686 116.68 350.846 115.64C351.006 115 351.166 114.52 351.166 114.12C351.246 111.96 350.686 110.04 348.766 109.96C346.446 109.96 345.326 111.48 345.086 114.12ZM342.286 101.72C344.686 103.64 348.766 102.76 350.366 100.6C351.406 99 351.006 97.8 350.366 96.36C348.926 93.4 344.766 91.24 342.126 93.4C341.246 94.28 340.526 95.4 340.686 97.72C340.846 99.72 341.246 100.92 342.286 101.72ZM383.951 135.56C383.951 139.16 381.311 141 378.751 141.96C376.351 142.76 373.791 143.24 371.551 143.16C369.791 143.08 368.671 142.52 367.871 141.8C367.231 141 366.831 139.8 366.831 138.68C366.831 137.16 367.631 135.8 368.511 134.92C370.831 132.6 374.351 130.92 378.351 131C381.551 131.08 383.951 132.36 383.951 135.56ZM374.271 109.16C370.351 109 366.431 109.88 363.951 111.72C362.591 112.68 361.791 114.36 362.671 115.64C363.551 117 364.991 116.76 366.111 115.96C368.271 114.6 370.431 114.2 372.511 114.2C375.791 114.2 378.911 115.08 380.991 117.08C383.151 119.24 384.911 124.68 384.911 128.04C383.071 126.44 380.831 125.96 377.871 125.96C372.271 126.2 367.711 128.36 364.591 131.56C362.911 133.24 361.631 136.04 361.631 138.68C361.631 141.16 362.271 143.24 363.471 144.76C364.991 146.84 368.191 148.04 371.311 148.04C374.271 148.04 377.151 147.64 379.631 146.68C382.351 145.72 384.831 144.28 386.511 142.12C387.071 144.04 389.151 146.68 391.791 148.28C392.991 149 394.591 149.16 395.631 148.04C396.511 146.92 396.671 145.48 395.551 144.52C394.991 143.96 394.351 143.88 393.951 143.56C392.671 142.44 391.791 141.56 391.151 140.12C390.191 138.68 390.271 137.72 390.511 136.28C391.151 127.72 390.431 119.32 385.231 113.64C382.351 110.52 378.991 109.32 374.271 109.16Z" fill="black"/>
<defs>
<linearGradient id="paint0_linear_525_22" x1="389.6" y1="172.969" x2="389.6" y2="0" gradientUnits="userSpaceOnUse">
<stop stop-color="#FEC786"/>
<stop offset="0.171875" stop-color="#FFAB72"/>
<stop offset="0.359375" stop-color="#FEA651"/>
<stop offset="0.5" stop-color="#F9A850"/>
<stop offset="0.65625" stop-color="#F39026"/>
<stop offset="0.817708" stop-color="#E45B00"/>
<stop offset="1" stop-color="#C24600"/>
</linearGradient>
<linearGradient id="paint1_linear_525_22" x1="389.6" y1="172.969" x2="389.6" y2="0" gradientUnits="userSpaceOnUse">
<stop stop-color="#FEC786"/>
<stop offset="0.171875" stop-color="#FFAB72"/>
<stop offset="0.359375" stop-color="#FEA651"/>
<stop offset="0.5" stop-color="#F9A850"/>
<stop offset="0.65625" stop-color="#F39026"/>
<stop offset="0.817708" stop-color="#E45B00"/>
<stop offset="1" stop-color="#C24600"/>
</linearGradient>
</defs>
</svg>
