<svg width="170" height="173" viewBox="0 0 170 173" fill="none" xmlns="http://www.w3.org/2000/svg">
<path d="M100.814 44.3898C100.814 44.3898 147.293 76.0375 149.088 124.05C149.088 124.05 142.61 153.147 98.1706 172.969C98.1706 172.969 139.478 123.711 94.5169 62.7974C94.5169 62.7974 90.1491 67.0096 85.7681 64.1339C81.3871 61.2591 84.6211 54.9343 84.6211 54.9343C84.6211 54.9343 80.3972 59.7953 77.8934 65.5458C75.3905 71.2962 76.8508 59.9 76.8508 59.9C76.8508 59.9 77.1114 57.809 75.9117 60.58C74.712 63.3501 73.8257 67.4802 73.7739 68.3158C73.7212 69.1524 73.0955 71.034 72.2091 71.9225C71.3228 72.8119 69.6018 75.7913 69.3929 76.3666C69.185 76.941 67.8808 78.5095 68.2977 70.8256C68.2977 70.8256 68.5846 68.2536 67.5073 71.4254C66.4299 74.5973 66.5306 79.2216 66.4967 80.6721C66.4628 82.1237 65.5539 83.7101 65.4532 84.0477C65.3525 84.3844 63.8037 87.2196 63.4998 88.4683C63.1978 89.717 62.557 89.2106 62.3895 87.827C62.2211 86.4434 61.5812 83.2706 61.649 82.1906C61.7158 81.1117 60.9075 81.7521 60.8407 82.4613C60.773 83.1696 60.4982 84.3495 60.8407 94.1423C60.8407 94.1423 61.0797 96.2956 60.4154 97.6283C59.7502 98.9619 58.0621 105.268 57.9088 107.011C57.7554 108.754 57.0901 108.242 56.63 106.345C56.1699 104.447 43.4625 71.599 85.1207 48.1483C85.1207 48.1483 86.0946 47.1164 84.1816 47.6078C82.2687 48.0992 80.161 48.6887 76.8263 50.9013C76.8263 50.9013 75.6981 51.4418 74.9134 51.3927C74.1287 51.3437 69.1266 51.9822 67.018 52.8178C64.9103 53.6535 66.8223 50.6061 66.8223 50.6061C66.8223 50.6061 70.2661 46.1629 70.8081 45.7479C71.3501 45.332 71.223 44.7246 69.8511 45.5244C68.4802 46.3233 64.3354 49.0395 59.1376 55.0173C59.1376 55.0173 58.7547 55.5926 57.1287 56.1038C55.5028 56.615 49.4441 59.4596 47.3712 60.8658C45.2983 62.2721 46.6401 56.6065 51.2704 48.6925C51.2704 48.6925 52.489 46.2016 50.1978 48.302C47.9075 50.4024 44.5446 53.5045 39.5247 64.8629C39.5247 64.8629 38.6957 66.4993 37.2335 67.1341C35.7713 67.7697 30.1671 72.2148 28.5581 73.4853C26.95 74.7557 25.8143 73.6871 30.5858 61.2525C30.5858 61.2525 31.6086 57.9731 28.4724 62.6191C25.3372 67.2642 21.3843 77.854 21.1802 78.8104C20.975 79.7667 19.2033 81.7483 19.2033 81.7483C19.2033 81.7483 16.7493 84.0024 13.6141 87.5553C10.4789 91.1082 13.3949 79.1244 13.3949 79.1244C13.3949 79.1244 13.919 77.3466 12.468 79.165C11.0162 80.9834 9.37141 86.2538 8.09079 93.5519C8.09079 93.5519 8.02302 94.7686 6.60785 96.5248C5.19174 98.2819 2.76507 102.134 2.09135 104.229C1.4167 106.323 0.000595093 103.485 0.000595093 98.2819C0.000595093 93.0785 -0.641125 57.1922 38.7296 37.9537C38.7296 37.9537 63.2439 25.3229 84.5514 36.7738C84.5514 36.7738 85.291 36.9285 84.3548 35.8165C83.4185 34.7045 82.6884 33.0181 78.7562 30.1075C74.825 27.1969 80.0999 29.3351 80.0999 29.3351C80.0999 29.3351 83.1212 30.3697 74.6801 24.1779C74.6801 24.1779 71.9485 22.2784 75.9108 23.1904C79.8731 24.1034 71.2268 17.0599 69.7646 16.4996C68.3014 15.9394 67.878 14.0691 72.2298 16.0809C76.5807 18.0917 84.1327 30.4942 86.3985 37.3076C86.3985 37.3076 73.6817 4.05558 112.738 0C112.738 0 113.438 0.0754445 112.559 0.879959C111.68 1.68542 109.768 2.64272 108.925 3.71698C108.925 3.71698 108.582 4.17631 107.664 4.09991C106.746 4.02352 101.928 6.05508 101.431 7.08972C100.933 8.12437 102.03 7.43115 102.03 7.43115C102.03 7.43115 105.036 6.52855 105.309 6.57948C105.581 6.62947 105.197 7.1067 105.197 7.1067C105.197 7.1067 102.079 10.3813 101.8 10.9048C101.519 11.4292 100.772 11.6537 100.772 11.6537C100.772 11.6537 96.7676 13.3221 93.6842 16.245C93.6842 16.245 91.6282 18.0426 94.6637 16.6043C97.6992 15.1669 98.0821 15.2867 98.0821 15.2867C98.0821 15.2867 98.6787 15.0472 98.0821 16.0299C97.4837 17.0118 96.0262 18.833 95.2141 21.0607C95.2141 21.0607 95.0457 21.588 94.5442 21.9473C94.0417 22.3067 89.8602 25.4926 89.1667 27.8647C89.1667 27.8647 88.5928 29.0153 90.0512 27.8892C91.5087 26.7631 92.4647 26.3556 92.4647 26.3556C92.4647 26.3556 93.0387 26.0925 92.8712 26.931C92.7037 27.7694 90.7917 33.2322 91.0552 36.9926C91.0552 36.9926 90.9225 37.7348 91.5388 36.6653C92.1551 35.5958 100.263 26.2264 115.135 27.0706C130.007 27.9156 158.776 37.7556 169.199 69.4259C169.199 69.4259 169.245 70.0475 168.625 69.4797C168.005 68.9119 164.45 66.4437 163.739 65.1562C163.029 63.8688 157.891 56.3085 156.033 55.3502C154.175 54.391 156.552 57.0206 156.552 57.0206C156.552 57.0206 159.613 60.746 159.476 61.842C159.34 62.937 157.153 60.8828 157.153 60.8828C157.153 60.8828 154.748 59.2398 154.12 59.0748C153.491 58.9107 152.808 57.7326 152.808 57.7326C152.808 57.7326 149.169 50.5637 144.83 48.3463C142.674 47.3089 144.715 49.3253 144.715 49.3253C144.715 49.3253 147.388 52.4651 147.503 54.7702C147.503 55.7784 146.124 54.8277 146.124 54.8277C146.124 54.8277 140.777 52.235 139.714 52.1199C138.651 52.0048 135.397 47.9351 135.397 47.9351C135.397 47.9351 132.396 44.2851 129.035 42.3195C125.674 40.3549 133.53 47.2692 133.686 49.4894C133.686 49.4894 133.874 50.0214 132.937 49.6771C132.001 49.3338 126.946 47.8634 126.197 47.8634C125.448 47.8634 124.044 46.4562 124.044 46.4562C124.044 46.4562 118.163 40.8916 112.414 39.7391C112.414 39.7391 110.458 39.0091 113.908 41.3141C117.357 43.6202 119.121 45.0802 119.619 46.4251C119.619 46.4251 119.804 46.9174 118.835 46.7552C117.865 46.5939 113.55 46.1544 112.096 46.3855C110.643 46.6166 108.912 45.414 108.912 45.414C108.912 45.414 103.374 43.1872 100.927 43.1552C98.4792 43.1222 100.814 44.3898 100.814 44.3898Z" fill="url(#paint0_linear_525_20)" fill-opacity="0.71"/>
<path d="M100.814 44.3898C100.814 44.3898 147.293 76.0375 149.088 124.05C149.088 124.05 142.61 153.147 98.1706 172.969C98.1706 172.969 139.478 123.711 94.5169 62.7974C94.5169 62.7974 90.1491 67.0096 85.7681 64.1339C81.3871 61.2591 84.6211 54.9343 84.6211 54.9343C84.6211 54.9343 80.3972 59.7953 77.8934 65.5458C75.3905 71.2962 76.8508 59.9 76.8508 59.9C76.8508 59.9 77.1114 57.809 75.9117 60.58C74.712 63.3501 73.8257 67.4802 73.7739 68.3158C73.7212 69.1524 73.0955 71.034 72.2091 71.9225C71.3228 72.8119 69.6018 75.7913 69.3929 76.3666C69.185 76.941 67.8808 78.5095 68.2977 70.8256C68.2977 70.8256 68.5846 68.2536 67.5073 71.4254C66.4299 74.5973 66.5306 79.2216 66.4967 80.6721C66.4628 82.1237 65.5539 83.7101 65.4532 84.0477C65.3525 84.3844 63.8037 87.2196 63.4998 88.4683C63.1978 89.717 62.557 89.2106 62.3895 87.827C62.2211 86.4434 61.5812 83.2706 61.649 82.1906C61.7158 81.1117 60.9075 81.7521 60.8407 82.4613C60.773 83.1696 60.4982 84.3495 60.8407 94.1423C60.8407 94.1423 61.0797 96.2956 60.4154 97.6283C59.7502 98.9619 58.0621 105.268 57.9088 107.011C57.7554 108.754 57.0901 108.242 56.63 106.345C56.1699 104.447 43.4625 71.599 85.1207 48.1483C85.1207 48.1483 86.0946 47.1164 84.1816 47.6078C82.2687 48.0992 80.161 48.6887 76.8263 50.9013C76.8263 50.9013 75.6981 51.4418 74.9134 51.3927C74.1287 51.3437 69.1266 51.9822 67.018 52.8178C64.9103 53.6535 66.8223 50.6061 66.8223 50.6061C66.8223 50.6061 70.2661 46.1629 70.8081 45.7479C71.3501 45.332 71.223 44.7246 69.8511 45.5244C68.4802 46.3233 64.3354 49.0395 59.1376 55.0173C59.1376 55.0173 58.7547 55.5926 57.1287 56.1038C55.5028 56.615 49.4441 59.4596 47.3712 60.8658C45.2983 62.2721 46.6401 56.6065 51.2704 48.6925C51.2704 48.6925 52.489 46.2016 50.1978 48.302C47.9075 50.4024 44.5446 53.5045 39.5247 64.8629C39.5247 64.8629 38.6957 66.4993 37.2335 67.1341C35.7713 67.7697 30.1671 72.2148 28.5581 73.4853C26.95 74.7557 25.8143 73.6871 30.5858 61.2525C30.5858 61.2525 31.6086 57.9731 28.4724 62.6191C25.3372 67.2642 21.3843 77.854 21.1802 78.8104C20.975 79.7667 19.2033 81.7483 19.2033 81.7483C19.2033 81.7483 16.7493 84.0024 13.6141 87.5553C10.4789 91.1082 13.3949 79.1244 13.3949 79.1244C13.3949 79.1244 13.919 77.3466 12.468 79.165C11.0162 80.9834 9.37141 86.2538 8.09079 93.5519C8.09079 93.5519 8.02302 94.7686 6.60785 96.5248C5.19174 98.2819 2.76507 102.134 2.09135 104.229C1.4167 106.323 0.000595093 103.485 0.000595093 98.2819C0.000595093 93.0785 -0.641125 57.1922 38.7296 37.9537C38.7296 37.9537 63.2439 25.3229 84.5514 36.7738C84.5514 36.7738 85.291 36.9285 84.3548 35.8165C83.4185 34.7045 82.6884 33.0181 78.7562 30.1075C74.825 27.1969 80.0999 29.3351 80.0999 29.3351C80.0999 29.3351 83.1212 30.3697 74.6801 24.1779C74.6801 24.1779 71.9485 22.2784 75.9108 23.1904C79.8731 24.1034 71.2268 17.0599 69.7646 16.4996C68.3014 15.9394 67.878 14.0691 72.2298 16.0809C76.5807 18.0917 84.1327 30.4942 86.3985 37.3076C86.3985 37.3076 73.6817 4.05558 112.738 0C112.738 0 113.438 0.0754445 112.559 0.879959C111.68 1.68542 109.768 2.64272 108.925 3.71698C108.925 3.71698 108.582 4.17631 107.664 4.09991C106.746 4.02352 101.928 6.05508 101.431 7.08972C100.933 8.12437 102.03 7.43115 102.03 7.43115C102.03 7.43115 105.036 6.52855 105.309 6.57948C105.581 6.62947 105.197 7.1067 105.197 7.1067C105.197 7.1067 102.079 10.3813 101.8 10.9048C101.519 11.4292 100.772 11.6537 100.772 11.6537C100.772 11.6537 96.7676 13.3221 93.6842 16.245C93.6842 16.245 91.6282 18.0426 94.6637 16.6043C97.6992 15.1669 98.0821 15.2867 98.0821 15.2867C98.0821 15.2867 98.6787 15.0472 98.0821 16.0299C97.4837 17.0118 96.0262 18.833 95.2141 21.0607C95.2141 21.0607 95.0457 21.588 94.5442 21.9473C94.0417 22.3067 89.8602 25.4926 89.1667 27.8647C89.1667 27.8647 88.5928 29.0153 90.0512 27.8892C91.5087 26.7631 92.4647 26.3556 92.4647 26.3556C92.4647 26.3556 93.0387 26.0925 92.8712 26.931C92.7037 27.7694 90.7917 33.2322 91.0552 36.9926C91.0552 36.9926 90.9225 37.7348 91.5388 36.6653C92.1551 35.5958 100.263 26.2264 115.135 27.0706C130.007 27.9156 158.776 37.7556 169.199 69.4259C169.199 69.4259 169.245 70.0475 168.625 69.4797C168.005 68.9119 164.45 66.4437 163.739 65.1562C163.029 63.8688 157.891 56.3085 156.033 55.3502C154.175 54.391 156.552 57.0206 156.552 57.0206C156.552 57.0206 159.613 60.746 159.476 61.842C159.34 62.937 157.153 60.8828 157.153 60.8828C157.153 60.8828 154.748 59.2398 154.12 59.0748C153.491 58.9107 152.808 57.7326 152.808 57.7326C152.808 57.7326 149.169 50.5637 144.83 48.3463C142.674 47.3089 144.715 49.3253 144.715 49.3253C144.715 49.3253 147.388 52.4651 147.503 54.7702C147.503 55.7784 146.124 54.8277 146.124 54.8277C146.124 54.8277 140.777 52.235 139.714 52.1199C138.651 52.0048 135.397 47.9351 135.397 47.9351C135.397 47.9351 132.396 44.2851 129.035 42.3195C125.674 40.3549 133.53 47.2692 133.686 49.4894C133.686 49.4894 133.874 50.0214 132.937 49.6771C132.001 49.3338 126.946 47.8634 126.197 47.8634C125.448 47.8634 124.044 46.4562 124.044 46.4562C124.044 46.4562 118.163 40.8916 112.414 39.7391C112.414 39.7391 110.458 39.0091 113.908 41.3141C117.357 43.6202 119.121 45.0802 119.619 46.4251C119.619 46.4251 119.804 46.9174 118.835 46.7552C117.865 46.5939 113.55 46.1544 112.096 46.3855C110.643 46.6166 108.912 45.414 108.912 45.414C108.912 45.414 103.374 43.1872 100.927 43.1552C98.4792 43.1222 100.814 44.3898 100.814 44.3898Z" fill="url(#paint1_linear_525_20)" fill-opacity="0.71"/>
<defs>
<linearGradient id="paint0_linear_525_20" x1="84.6" y1="172.969" x2="84.6" y2="0" gradientUnits="userSpaceOnUse">
<stop stop-color="#FEC786"/>
<stop offset="0.171875" stop-color="#FFAB72"/>
<stop offset="0.359375" stop-color="#FEA651"/>
<stop offset="0.5" stop-color="#F9A850"/>
<stop offset="0.65625" stop-color="#F39026"/>
<stop offset="0.817708" stop-color="#E45B00"/>
<stop offset="1" stop-color="#C24600"/>
</linearGradient>
<linearGradient id="paint1_linear_525_20" x1="84.6" y1="172.969" x2="84.6" y2="0" gradientUnits="userSpaceOnUse">
<stop stop-color="#FEC786"/>
<stop offset="0.171875" stop-color="#FFAB72"/>
<stop offset="0.359375" stop-color="#FEA651"/>
<stop offset="0.5" stop-color="#F9A850"/>
<stop offset="0.65625" stop-color="#F39026"/>
<stop offset="0.817708" stop-color="#E45B00"/>
<stop offset="1" stop-color="#C24600"/>
</linearGradient>
</defs>
</svg>
